<svg width="1022" height="100" viewBox="0 0 1022 100" fill="none" xmlns="http://www.w3.org/2000/svg">
<path d="M195.69 92.6724H178.664V57.1121H143.75V92.6724H126.724V7.32759H143.75V43.9655H178.448V7.32759H195.474V92.6724H195.69Z" fill="white"/>
<path d="M257.328 74.1379H227.371L221.552 92.4569H204.31L233.621 7.32759H251.078L280.388 92.6724H263.147L257.328 74.1379ZM231.681 60.7759H253.233L242.672 27.3707H242.241L231.681 60.7759Z" fill="white"/>
<path d="M352.586 63.5776L352.802 64.0086C353.017 73.2759 350.216 80.3879 344.397 85.7759C338.578 91.1638 330.603 93.75 320.474 93.75C310.129 93.75 301.94 90.5172 295.474 83.8362C289.009 77.1552 285.776 68.75 285.776 58.4052V41.5948C285.776 31.25 288.793 22.8448 295.043 16.1638C301.293 9.48276 309.483 6.25 319.397 6.25C329.957 6.25 338.147 9.05172 344.181 14.4397C350.216 19.8276 353.017 27.1552 352.802 36.6379L352.586 37.069H336.207C336.207 31.4655 334.914 27.1552 332.112 24.1379C329.526 21.1207 325.216 19.6121 319.612 19.6121C314.44 19.6121 310.345 21.7672 307.543 25.8621C304.526 29.9569 303.017 35.3448 303.017 41.8103V58.8362C303.017 65.3017 304.526 70.6897 307.759 74.7845C310.991 78.8793 315.086 81.0345 320.474 81.0345C325.862 81.0345 329.741 79.5259 332.328 76.7241C334.914 73.9224 336.207 69.6121 336.207 64.0086H352.586V63.5776Z" fill="white"/>
<path d="M391.595 57.1121H382.112V92.6724H365.086V7.32759H382.112V42.2414H389.44L412.069 7.32759H432.974L404.31 46.9828L435.129 92.6724H414.224L391.595 57.1121Z" fill="white"/>
<path d="M517.888 74.1379H487.931L482.112 92.4569H464.871L494.181 7.32759H511.638L540.948 92.6724H523.707L517.888 74.1379ZM492.241 60.7759H513.793L503.233 27.3707H502.802L492.241 60.7759Z" fill="white"/>
<path d="M613.147 63.5776L613.362 64.0086C613.578 73.2759 610.776 80.3879 604.957 85.7759C599.138 91.1638 591.164 93.75 581.034 93.75C570.69 93.75 562.5 90.5172 556.034 83.8362C549.569 77.1552 546.336 68.75 546.336 58.4052V41.5948C546.336 31.25 549.353 22.8448 555.603 16.1638C561.853 9.48276 570.043 6.25 579.957 6.25C590.517 6.25 598.707 9.05172 604.741 14.4397C610.776 19.8276 613.578 27.1552 613.362 36.6379L613.147 37.069H596.552C596.552 31.4655 595.259 27.1552 592.457 24.1379C589.871 21.1207 585.56 19.6121 579.957 19.6121C574.784 19.6121 570.69 21.7672 567.888 25.8621C564.871 29.9569 563.362 35.3448 563.362 41.8103V58.8362C563.362 65.3017 564.871 70.6897 568.103 74.7845C571.336 78.8793 575.431 81.0345 580.819 81.0345C586.207 81.0345 590.086 79.5259 592.672 76.7241C595.259 73.9224 596.552 69.6121 596.552 64.0086H613.147V63.5776Z" fill="white"/>
<path d="M671.336 74.1379H641.379L635.56 92.4569H618.319L647.629 7.32759H665.086L694.397 92.6724H677.155L671.336 74.1379ZM645.474 60.7759H667.026L656.466 27.3707H656.034L645.474 60.7759Z" fill="white"/>
<path d="M702.155 92.6724V7.32759H731.465C741.81 7.32759 750.431 10.5603 757.112 17.2414C763.793 23.9224 767.241 32.3276 767.241 42.8879V56.8966C767.241 67.4569 763.793 75.8621 757.112 82.5431C750.431 89.2241 741.81 92.4569 731.465 92.4569H702.155V92.6724ZM719.396 20.4741V79.3103H730.603C736.638 79.3103 741.595 77.1552 745.043 73.0603C748.491 68.9655 750.215 63.5776 750.215 56.8966V42.6724C750.215 35.9914 748.491 30.819 745.043 26.5086C741.595 22.4138 736.853 20.2586 730.603 20.2586H719.396V20.4741Z" fill="white"/>
<path d="M833.19 55.1724H797.845V79.5259H839.009V92.6724H780.603V7.32759H838.793V20.4741H797.629V41.8103H832.974V55.1724H833.19Z" fill="white"/>
<path d="M871.983 7.32759L893.75 70.0431H894.181L915.948 7.32759H938.362V92.6724H921.336V67.2414L923.06 29.5259H922.629L899.569 92.6724H888.147L865.517 29.7414H865.086L866.81 67.2414V92.6724H849.784V7.32759H871.983Z" fill="white"/>
<path d="M983.836 46.7672H984.267L1002.8 7.54311H1021.55L992.241 62.7155V92.6724H975.215V61.8535L946.552 7.32759H965.302L983.836 46.7672Z" fill="white"/>
<path d="M100 0H0V100H100V0Z" fill="#EF6C00"/>
<path d="M74.1379 78.4483H62.069V53.6638H37.7155V78.4483H25.8621V18.5345H37.931V44.3966H62.2845V18.5345H74.3534V78.4483H74.1379Z" fill="white"/>
<path d="M45.2586 78.4483V71.3362H54.5259V78.4483C54.5259 81.0345 54.0948 83.1897 53.2328 84.6983C52.3707 86.2069 50.8621 87.5 48.9224 88.3621L47.1983 85.7759C48.4914 85.1293 49.569 84.2672 50 83.1897C50.6466 82.1121 50.8621 80.3879 51.0776 78.4483H45.2586Z" fill="white"/>
<path d="M54.5259 59.2672H45.2586V66.3793H54.5259V59.2672Z" fill="white"/>
</svg>
